<svg width="42" height="42" viewBox="0 0 42 42" fill="none" xmlns="http://www.w3.org/2000/svg">
  <path d="M35.2912 0C35.6606 0 36.0183 0.14216 36.2861 0.409945C36.5539 0.677731 36.696 1.03541 36.696 1.40483C36.696 1.77425 36.5539 2.13193 36.2861 2.39972L14.2633 24.4225L17.9775 28.1367L40 6.11388C40.2678 5.84609 40.6255 5.70393 40.995 5.70393C41.3644 5.70393 41.7221 5.84609 41.9899 6.11388C42.2576 6.38167 42.3998 6.73934 42.3998 7.10876C42.3998 7.47818 42.2576 7.83586 41.9899 8.10365L19.9671 30.1264L13.9422 30.1264L13.9422 24.1015L35.965 2.07874C36.2328 1.81095 36.5905 1.66879 36.9599 1.66879C37.3293 1.66879 37.687 1.81095 37.9548 2.07874L35.2912 0ZM0 37.8426C0 37.4731 0.14216 37.1154 0.409945 36.8476L10.223 27.0346L15.1862 31.9979L5.37316 41.8109C5.10538 42.0787 4.7477 42.2208 4.37828 42.2208C4.00886 42.2208 3.65118 42.0787 3.3834 41.8109L0 38.4275C0 37.9796 0 37.752 0 37.8426Z" fill="url(#paint0_linear)" />
  <defs>
    <linearGradient id="paint0_linear" x1="0" y1="0" x2="42" y2="42" gradientUnits="userSpaceOnUse">
      <stop offset="0.259336" stop-color="#FFDB6E"/>
      <stop offset="1" stop-color="#FFBC5E"/>
    </linearGradient>
  </defs>
</svg>
